<svg xmlns="http://www.w3.org/2000/svg" viewBox="0 0 1100 320" font-family="Inter, -apple-system, sans-serif">
  <!-- Dark blue-gray background — blends with hero but distinguishable -->
  <rect width="1100" height="320" fill="#1E293B" rx="8"/>

  <!-- Subtle grid pattern for depth -->
  <defs>
    <pattern id="grid" width="40" height="40" patternUnits="userSpaceOnUse">
      <path d="M 40 0 L 0 0 0 40" fill="none" stroke="rgba(255,255,255,0.03)" stroke-width="0.5"/>
    </pattern>
    <marker id="arr-t" markerWidth="7" markerHeight="7" refX="6" refY="3.5" orient="auto">
      <path d="M 0 0 L 7 3.5 L 0 7 Z" fill="#64748B"/>
    </marker>
    <marker id="arr-orange" markerWidth="7" markerHeight="7" refX="6" refY="3.5" orient="auto">
      <path d="M 0 0 L 7 3.5 L 0 7 Z" fill="#EA580C"/>
    </marker>
    <marker id="arr-green-t" markerWidth="7" markerHeight="7" refX="6" refY="3.5" orient="auto">
      <path d="M 0 0 L 7 3.5 L 0 7 Z" fill="#10B981"/>
    </marker>
  </defs>
  <rect width="1100" height="320" fill="url(#grid)" rx="8"/>

  <!-- Robot Observation -->
  <rect x="20" y="100" width="110" height="120" rx="8" fill="rgba(255,255,255,0.04)" stroke="#475569" stroke-width="1.5"/>
  <text x="75" y="130" text-anchor="middle" font-size="11" font-weight="700" fill="#E2E8F0">Robot</text>
  <text x="75" y="148" text-anchor="middle" font-size="11" font-weight="700" fill="#E2E8F0">Observation</text>
  <text x="75" y="172" text-anchor="middle" font-size="9" fill="#94A3B8">Vision</text>
  <text x="75" y="186" text-anchor="middle" font-size="9" fill="#94A3B8">Proprioception</text>
  <text x="75" y="200" text-anchor="middle" font-size="9" fill="#94A3B8">Tactile (9×9×2)</text>

  <!-- Arrow: Obs → DP -->
  <path d="M 130 160 L 165 160" stroke="#64748B" stroke-width="1.5" marker-end="url(#arr-t)"/>

  <!-- Base Policy (Policy-agnostic) -->
  <rect x="170" y="110" width="130" height="100" rx="8" fill="rgba(59,130,246,0.1)" stroke="#3B82F6" stroke-width="1.5"/>
  <text x="235" y="140" text-anchor="middle" font-size="12" font-weight="700" fill="#93C5FD">Base Policy</text>
  <text x="235" y="162" text-anchor="middle" font-size="9" fill="#94A3B8">Diffusion / Flow</text>
  <text x="235" y="176" text-anchor="middle" font-size="9" fill="#94A3B8">Matching</text>
  <text x="235" y="198" text-anchor="middle" font-size="9" fill="#64748B">→ action chunk</text>

  <!-- Arrow: DP → Predict -->
  <path d="M 300 160 L 335 160" stroke="#EA580C" stroke-width="2" marker-end="url(#arr-orange)"/>
  <text x="317" y="148" text-anchor="middle" font-size="8" font-weight="600" fill="#FDBA74">action</text>

  <!-- ① PREDICT block (Orange) -->
  <rect x="340" y="85" width="160" height="150" rx="10" fill="rgba(234,88,12,0.12)" stroke="#EA580C" stroke-width="2"/>
  <!-- Glow effect -->
  <rect x="342" y="87" width="156" height="146" rx="9" fill="none" stroke="rgba(234,88,12,0.2)" stroke-width="4"/>
  <text x="420" y="110" text-anchor="middle" font-size="10" font-weight="800" fill="#FDBA74">① PREDICT</text>
  <text x="420" y="135" text-anchor="middle" font-size="12" font-weight="700" fill="#FED7AA">Tactile Foresight</text>
  <text x="420" y="153" text-anchor="middle" font-size="12" font-weight="700" fill="#FED7AA">Transformer</text>
  <text x="420" y="178" text-anchor="middle" font-size="9" fill="#CBD5E1">Obs + Action Chunk</text>
  <text x="420" y="193" text-anchor="middle" font-size="9" fill="#CBD5E1">→ Future Tactile Latent</text>
  <text x="420" y="208" text-anchor="middle" font-size="9" fill="#CBD5E1">(H = 16 steps)</text>
  <text x="420" y="227" text-anchor="middle" font-size="8" fill="#64748B">❄ frozen weights</text>

  <!-- Arrow: Predict → Score -->
  <path d="M 500 160 L 535 160" stroke="#7C3AED" stroke-width="2" marker-end="url(#arr-purple)"/>
  <defs>
    <marker id="arr-purple" markerWidth="7" markerHeight="7" refX="6" refY="3.5" orient="auto">
      <path d="M 0 0 L 7 3.5 L 0 7 Z" fill="#7C3AED"/>
    </marker>
  </defs>
  <text x="517" y="148" text-anchor="middle" font-size="8" font-weight="600" fill="#C4B5FD">latent</text>

  <!-- ② SCORE block (Purple) -->
  <rect x="540" y="85" width="160" height="150" rx="10" fill="rgba(124,58,237,0.12)" stroke="#7C3AED" stroke-width="2"/>
  <rect x="542" y="87" width="156" height="146" rx="9" fill="none" stroke="rgba(124,58,237,0.2)" stroke-width="4"/>
  <text x="620" y="110" text-anchor="middle" font-size="10" font-weight="800" fill="#C4B5FD">② SCORE</text>
  <text x="620" y="135" text-anchor="middle" font-size="12" font-weight="700" fill="#DDD6FE">Contact Quality</text>
  <text x="620" y="153" text-anchor="middle" font-size="12" font-weight="700" fill="#DDD6FE">Energy Model</text>
  <text x="620" y="178" text-anchor="middle" font-size="9" fill="#CBD5E1">Pred. Tactile + Action</text>
  <text x="620" y="193" text-anchor="middle" font-size="9" fill="#CBD5E1">→ Quality Score</text>
  <text x="620" y="208" text-anchor="middle" font-size="10" font-weight="600" fill="#C4B5FD">∂score / ∂action</text>
  <text x="620" y="227" text-anchor="middle" font-size="8" fill="#64748B">❄ frozen weights</text>

  <!-- Arrow: Score → Guide -->
  <path d="M 700 160 L 735 160" stroke="#10B981" stroke-width="2" marker-end="url(#arr-green-t)"/>
  <text x="717" y="148" text-anchor="middle" font-size="8" font-weight="600" fill="#6EE7B7">∇</text>

  <!-- ③ GUIDE block (Green) -->
  <rect x="740" y="85" width="160" height="150" rx="10" fill="rgba(16,185,129,0.1)" stroke="#10B981" stroke-width="2"/>
  <rect x="742" y="87" width="156" height="146" rx="9" fill="none" stroke="rgba(16,185,129,0.15)" stroke-width="4"/>
  <text x="820" y="110" text-anchor="middle" font-size="10" font-weight="800" fill="#6EE7B7">③ GUIDE</text>
  <text x="820" y="135" text-anchor="middle" font-size="12" font-weight="700" fill="#A7F3D0">Trust-Region</text>
  <text x="820" y="153" text-anchor="middle" font-size="12" font-weight="700" fill="#A7F3D0">Refinement</text>
  <text x="820" y="178" text-anchor="middle" font-size="9" fill="#CBD5E1">Bounded gradient</text>
  <text x="820" y="193" text-anchor="middle" font-size="9" fill="#CBD5E1">ascent on action</text>
  <text x="820" y="208" text-anchor="middle" font-size="9" fill="#CBD5E1">(4 steps, δ ≤ 0.02)</text>
  <text x="820" y="227" text-anchor="middle" font-size="8" fill="#64748B">accept only if improved</text>

  <!-- Arrow: Guide → Output -->
  <path d="M 900 160 L 935 160" stroke="#F97316" stroke-width="2" marker-end="url(#arr-orange)"/>

  <!-- Output: Guided Action (solid orange) -->
  <rect x="940" y="115" width="135" height="90" rx="10" fill="#EA580C"/>
  <rect x="940" y="115" width="135" height="90" rx="10" fill="none" stroke="#FDBA74" stroke-width="1" opacity="0.5"/>
  <text x="1007" y="150" text-anchor="middle" font-size="13" font-weight="800" fill="#FFFFFF">Guided</text>
  <text x="1007" y="170" text-anchor="middle" font-size="13" font-weight="800" fill="#FFFFFF">Action</text>
  <text x="1007" y="195" text-anchor="middle" font-size="9" fill="#FED7AA">→ Robot Execution</text>

  <!-- Iterative feedback loop (green dashed) -->
  <path d="M 820 235 L 820 275 L 420 275 L 420 235" stroke="#10B981" stroke-width="1.5" stroke-dasharray="6,4" fill="none" marker-end="url(#arr-green-t)"/>
  <text x="620" y="295" text-anchor="middle" font-size="9" font-weight="500" fill="#6EE7B7">Iterative: refined action → re-predict → re-score (×4)</text>

  <!-- Title -->
  <text x="550" y="30" text-anchor="middle" font-size="16" font-weight="800" fill="#F1F5F9">ForeTac: Predict → Score → Guide</text>
  <text x="550" y="52" text-anchor="middle" font-size="11" fill="#94A3B8">Steering robot actions with predicted contact consequences at inference time</text>
</svg>
